<?xml version="1.0" encoding="UTF-8"?>
<svg xmlns="http://www.w3.org/2000/svg" xmlns:xlink="http://www.w3.org/1999/xlink" width="26px" height="26px" viewBox="0 0 26 26" version="1.1">
<g id="surface1">
<path style=" stroke:none;fill-rule:nonzero;fill:rgb(0%,0%,0%);fill-opacity:1;" d="M 22.320312 11.984375 C 22.320312 11.410156 21.855469 10.949219 21.28125 10.949219 C 20.707031 10.949219 20.246094 11.410156 20.246094 11.984375 C 20.246094 15.539062 16.996094 18.429688 13 18.429688 C 9.003906 18.429688 5.753906 15.539062 5.753906 11.984375 C 5.753906 11.410156 5.292969 10.949219 4.71875 10.949219 C 4.144531 10.949219 3.683594 11.410156 3.683594 11.984375 C 3.683594 16.363281 7.3125 19.976562 11.964844 20.449219 L 11.964844 23.371094 L 10.765625 23.371094 C 10.191406 23.371094 9.730469 23.832031 9.730469 24.40625 C 9.730469 24.980469 10.191406 25.441406 10.765625 25.441406 L 15.234375 25.441406 C 15.808594 25.441406 16.269531 24.980469 16.269531 24.40625 C 16.269531 23.832031 15.808594 23.371094 15.234375 23.371094 L 14.035156 23.371094 L 14.035156 20.449219 C 18.6875 19.976562 22.320312 16.363281 22.320312 11.984375 Z M 22.320312 11.984375 "/>
<path style=" stroke:none;fill-rule:nonzero;fill:rgb(0%,0%,0%);fill-opacity:1;" d="M 13 16.429688 C 15.589844 16.429688 17.6875 14.332031 17.6875 11.742188 L 17.6875 5.246094 C 17.6875 2.65625 15.589844 0.558594 13 0.558594 C 10.410156 0.558594 8.3125 2.65625 8.3125 5.246094 L 8.3125 11.742188 C 8.3125 14.332031 10.410156 16.429688 13 16.429688 Z M 10.34375 5.246094 C 10.34375 3.785156 11.539062 2.589844 13 2.589844 C 14.460938 2.589844 15.65625 3.785156 15.65625 5.246094 L 15.65625 11.742188 C 15.65625 13.203125 14.460938 14.398438 13 14.398438 C 11.539062 14.398438 10.34375 13.203125 10.34375 11.742188 Z M 10.34375 5.246094 "/>
</g>
</svg>
